Land_normalized_Motion_pl07
version=1
nRows=12
nColumns=43
inDegrees=yes
endheader
time		pelvis_tilt		pelvis_list		pelvis_rotation		pelvis_tx		pelvis_ty		pelvis_tz		hip_flexion_r		hip_adduction_r		hip_rotation_r		knee_angle_r		ankle_angle_r		subtalar_angle_r		mtp_angle_r		hip_flexion_l		hip_adduction_l		hip_rotation_l		knee_angle_l		ankle_angle_l		subtalar_angle_l		mtp_angle_l		lumbar_extension		lumbar_bending		lumbar_rotation		neck_flexion		neck_lateral_bending		neck_rotation		arm_flex_r		arm_add_r		arm_rot_r		elbow_flex_r		pro_sup_r		wrist_flex_r		wrist_dev_r		hand_finger_flex_r		arm_flex_l		arm_add_l		arm_rot_l		elbow_flex_l		pro_sup_l		wrist_flex_l		wrist_dev_l		hand_finger_flex_l		
0.971288		-4.604624		15.750213		94.767262		-0.017079		0.721332		0.442528		42.011463		-7.581088		-5.459871		-86.240656		16.532144		-8.474678		11.467474		39.988205		2.134646		-5.134325		-79.990994		17.452636		-15.792884		18.093175		-54.020886		-0.006326		-2.772951		-11.964109		0.507829		-2.368532		-37.797821		-34.680903		-35.722284		76.550633		79.446552		-31.557702		-1.892098		45.800382		-40.837739		-36.246739		-31.860991		80.062328		-75.106726		-23.290023		-6.673655		-90.000210		
0.973939		-4.694183		15.908514		94.705232		-0.017174		0.711644		0.440786		43.308849		-7.620728		-5.247620		-88.723514		16.634511		-8.950031		11.597312		41.026713		2.316669		-5.182722		-82.105196		18.006439		-16.532253		17.792510		-54.605082		-0.091903		-2.849927		-11.099884		0.570856		-2.349754		-35.923637		-35.946798		-34.971377		76.664310		79.553379		-31.732356		-1.789750		45.908939		-38.899972		-37.209364		-31.271002		80.152949		-74.832087		-23.460040		-6.737788		-90.000210		
0.976591		-4.787587		15.769205		94.626086		-0.017208		0.701494		0.439128		44.983783		-7.618631		-4.937273		-91.204945		16.455674		-9.479248		11.804203		42.420411		2.541764		-5.210268		-84.229921		18.437729		-17.518139		17.433220		-54.841220		-0.219009		-2.941200		-10.445696		0.622856		-2.281377		-33.934039		-37.181562		-34.102830		76.736747		79.735804		-32.128672		-1.619276		46.050079		-36.895693		-38.183552		-30.633894		80.188040		-74.428471		-23.750153		-6.812274		-90.000210		
0.979242		-4.854523		15.862558		94.589356		-0.017278		0.692141		0.437647		46.288569		-7.620000		-4.704983		-93.509749		16.406676		-9.841767		11.978992		43.515531		2.712333		-5.221478		-86.288877		18.828130		-18.194415		17.208188		-55.392947		-0.268589		-3.013037		-9.573557		0.684592		-2.273003		-31.842760		-38.403255		-33.251154		76.798694		79.879569		-32.334077		-1.509195		46.145740		-34.758811		-39.126817		-29.969951		80.239703		-74.133250		-23.925878		-6.884038		-90.000210		
0.981894		-4.883047		16.197848		94.587300		-0.017334		0.683634		0.436301		47.226671		-7.610267		-4.548302		-95.651616		16.393691		-9.998234		12.092361		44.284008		2.832803		-5.163565		-88.254938		19.264730		-18.597036		17.147252		-56.249963		-0.241314		-3.054713		-8.552877		0.740560		-2.304485		-29.620298		-39.622684		-32.369860		76.820430		79.996589		-32.333284		-1.443655		46.164600		-32.496382		-40.098717		-29.202428		80.280200		-73.949819		-23.995267		-6.976885		-90.000210		
0.984545		-4.921281		15.789873		94.462657		-0.017296		0.673639		0.434830		49.185013		-7.512391		-4.187341		-97.916900		15.892892		-10.448360		12.639867		45.954159		2.945020		-5.213775		-90.313132		19.377806		-19.419899		16.623998		-56.181075		-0.369959		-3.139673		-8.125368		0.808028		-2.237794		-27.210715		-40.886945		-31.045139		76.684094		80.404924		-33.179657		-1.213269		46.533596		-30.169767		-40.930429		-28.454891		80.157545		-73.084042		-24.551566		-6.963189		-90.000210		
0.987197		-4.944062		16.064577		94.472632		-0.017260		0.665408		0.433559		50.187512		-7.471508		-3.964392		-99.920003		15.618767		-10.505034		12.847327		46.759528		3.033231		-5.135821		-92.225281		19.696232		-19.732474		16.493293		-56.984829		-0.339725		-3.182901		-7.127547		0.844129		-2.261012		-24.787427		-42.026928		-30.010100		76.664307		80.561518		-33.273793		-1.141715		46.642052		-27.744592		-41.850934		-27.606541		80.179547		-72.757791		-24.690213		-7.015387		-90.000210		
0.989848		-4.933741		16.412734		94.426633		-0.017159		0.657635		0.432143		51.101492		-7.369663		-3.711009		-101.856627		15.022153		-10.409151		13.136112		47.429386		3.035093		-5.052861		-94.077687		19.956484		-19.850378		16.367566		-57.754041		-0.320587		-3.188417		-6.681530		0.867134		-2.277693		-22.112090		-43.211818		-28.678270		76.431118		80.818185		-33.412079		-1.013296		46.749036		-25.161012		-42.800237		-26.494402		80.024445		-72.285680		-24.918686		-7.096174		-90.000210		
0.992500		-4.936848		16.686828		94.361300		-0.017000		0.649850		0.430772		52.089616		-7.246579		-3.416989		-103.713793		14.496639		-10.370117		13.556314		48.183004		3.000195		-5.007776		-95.909525		20.192661		-19.864106		16.249882		-58.484673		-0.334925		-3.180933		-6.023260		0.896554		-2.281414		-19.401317		-44.341030		-27.289218		76.227439		81.173502		-33.624960		-0.884011		46.850920		-22.500044		-43.634383		-25.453030		79.917950		-71.722619		-25.206969		-7.134161		-90.000210		
0.995152		-4.970005		17.040697		94.367597		-0.016991		0.642457		0.429494		52.922640		-7.202333		-3.147183		-105.469112		14.200975		-10.320082		13.953432		48.811028		3.026044		-4.944042		-97.646957		20.429836		-19.867047		16.225645		-59.416701		-0.304286		-3.168075		-4.821007		0.979803		-2.301044		-16.785452		-45.371386		-26.115996		76.160947		81.412415		-33.605274		-0.819684		46.901082		-19.769129		-44.279103		-24.565365		79.956762		-71.357579		-25.332039		-7.137797		-90.000210		
0.997803		-5.061009		17.289305		94.246228		-0.016725		0.635026		0.427892		53.936372		-7.066585		-2.658714		-107.191764		13.028419		-10.320243		17.589905		49.519820		2.947708		-5.031998		-99.390904		20.676902		-19.567418		15.823464		-60.016597		-0.442328		-3.389717		-4.640268		0.988531		-2.053615		-13.320420		-46.462226		-23.855661		75.595999		82.358489		-34.643857		-0.613409		48.086600		-17.120844		-44.798078		-23.876934		79.665224		-68.911483		-26.734482		-6.027411		-90.000210		
1.000455		-5.065562		17.721384		94.170224		-0.016529		0.628146		0.426453		54.647154		-6.891137		-2.275004		-108.820098		12.501927		-9.929250		17.781603		50.024078		2.830412		-5.007698		-101.084695		20.706740		-19.388615		15.879764		-60.890652		-0.458044		-3.261312		-4.053393		1.019557		-2.133088		-10.498955		-47.410754		-22.417560		75.359358		82.645020		-34.514448		-0.558629		47.871245		-14.132625		-45.541606		-22.426683		79.543609		-68.764933		-26.698243		-6.246122		-90.000210		
